<svg width="135" height="20" fill="none" xmlns="http://www.w3.org/2000/svg"><g clip-path="url(#a)"><path fill="#545A61" d="M0 0h63v20H0z"/><g filter="url(#b)" fill="#fff"><path d="M13.3 10.94h-1.6l-.14-.13V9.19l.14-.13h1.62l.13.13v1.62l-.13.13Zm-3.36 2.44H9.8l-.69-.68v-.14l1.05-1.05h.73l.1.1v.72l-1.05 1.05Zm-.83-5.94V7.3l.7-.69h.13l1.05 1.06v.72l-.1.1h-.73L9.11 7.44Zm.97 3.14h-4L6 10.5v-1l.08-.08h4l.08.08v1l-.08.08Zm8.84 0h-4l-.08-.08v-1l.08-.08h4l.08.08v1l-.08.08Zm-7-3v-3L12 4.5h1l.08.08v3l-.08.09h-1l-.08-.09Zm0 7.84v-3l.08-.09h1l.08.09v3l-.08.08h-1l-.08-.08Z"/></g><g filter="url(#c)"><path d="M28.38 14h-1.01v-3.42c0-.27-.02-.53-.05-.77-.03-.24-.1-.43-.18-.57a.8.8 0 0 0-.39-.33 1.62 1.62 0 0 0-.65-.11c-.28 0-.57.06-.87.2-.3.14-.59.3-.86.52V14h-1.01V8h1v.67c.32-.26.65-.47.99-.62.33-.14.68-.22 1.03-.22.65 0 1.15.2 1.49.59.34.39.5.95.5 1.69V14Zm6.96-2.9h-4.42c0 .37.06.7.17.97a1.82 1.82 0 0 0 1.12 1.06c.25.09.54.13.84.13.41 0 .82-.08 1.23-.24.42-.17.71-.33.89-.49h.05v1.1a6.4 6.4 0 0 1-1.04.36c-.35.1-.72.15-1.12.15-1 0-1.77-.27-2.33-.8a3.1 3.1 0 0 1-.83-2.3c0-.99.26-1.76.8-2.34a2.76 2.76 0 0 1 2.11-.87c.81 0 1.43.24 1.87.71.44.48.66 1.15.66 2.02v.54Zm-.98-.77c0-.53-.14-.94-.4-1.23-.26-.29-.66-.43-1.2-.43-.54 0-.97.16-1.3.47-.31.32-.5.72-.54 1.2h3.44Zm5.63 3.62a5.48 5.48 0 0 1-1.22.17c-.61 0-1.08-.17-1.4-.5-.32-.33-.48-.85-.48-1.58v-3.2h-.68V8h.68V6.28h1.01V8H40v.85h-2.1v2.73c0 .32.01.57.03.74.01.18.06.34.15.5.08.14.18.25.32.32a2.05 2.05 0 0 0 1.15.03l.38-.13H40v.9Zm2.24.05h-1V5.64h1V14Zm3.09-7h-1.14V5.95h1.14V7Zm-.07 7h-1V8h1v6Zm5.23-7.38h-.06a4.43 4.43 0 0 0-.9-.15c-.44 0-.75.1-.95.29-.2.19-.29.54-.29 1.04V8h1.82v.85h-1.79V14h-1V8.85h-.69V8h.68v-.2c0-.71.18-1.26.54-1.64.35-.38.86-.57 1.53-.57a5.14 5.14 0 0 1 1.1.1v.93ZM56.3 8l-3.5 8.21h-1.09l1.12-2.5L50.45 8h1.1l1.84 4.45L55.25 8h1.06Z" fill="#fff"/></g><path fill="#D1D5DA" d="M63 0h72v20H63z"/><path d="M75.15 14h-1v-3.42c0-.27-.02-.53-.06-.77a1.54 1.54 0 0 0-.17-.57.8.8 0 0 0-.39-.33 1.62 1.62 0 0 0-.66-.11c-.27 0-.56.06-.86.2-.3.14-.59.3-.86.52V14h-1.01V8h1v.67c.32-.26.65-.47.98-.62a2.7 2.7 0 0 1 1.04-.22c.65 0 1.14.2 1.48.59.34.39.51.95.51 1.69V14Zm7.06-3c0 .98-.25 1.75-.75 2.32-.5.56-1.18.85-2.02.85-.85 0-1.52-.29-2.02-.85a3.38 3.38 0 0 1-.75-2.32c0-.97.25-1.75.75-2.31.5-.57 1.17-.86 2.02-.86.84 0 1.52.29 2.02.86.5.56.75 1.34.75 2.31Zm-1.04 0c0-.77-.15-1.35-.46-1.73-.3-.38-.73-.57-1.27-.57s-.97.2-1.27.57c-.3.38-.46.96-.46 1.73 0 .75.16 1.33.46 1.72.3.38.73.58 1.27.58s.96-.2 1.27-.58c.3-.38.46-.96.46-1.72Zm11.34 3h-1v-.63c-.3.25-.6.45-.92.59-.31.14-.65.2-1.02.2-.72 0-1.29-.27-1.71-.82a3.71 3.71 0 0 1-.63-2.3 4 4 0 0 1 .22-1.35 3 3 0 0 1 .59-1.02 2.48 2.48 0 0 1 1.86-.84 3.12 3.12 0 0 1 1.6.41v-2.6h1.01V14Zm-1-1.48V9.08a3.32 3.32 0 0 0-1.43-.32c-.58 0-1.02.2-1.33.59-.32.4-.48.95-.48 1.67s.13 1.26.37 1.63c.24.37.63.56 1.17.56.29 0 .58-.07.87-.2.3-.12.57-.29.82-.49Zm8.01-1.41H95.1c0 .36.06.69.17.96a1.82 1.82 0 0 0 1.11 1.06c.26.09.54.13.85.13.41 0 .82-.08 1.23-.24.42-.17.71-.33.89-.49h.05v1.1c-.34.15-.69.27-1.04.36-.35.1-.73.15-1.12.15-1 0-1.77-.27-2.33-.8a3.07 3.07 0 0 1-.84-2.3c0-.99.27-1.76.8-2.34A2.76 2.76 0 0 1 97 7.83c.81 0 1.43.24 1.87.71.44.48.66 1.15.66 2.02v.54Zm-.98-.78c0-.53-.14-.94-.4-1.23-.27-.29-.67-.43-1.2-.43-.54 0-.98.16-1.3.47-.32.32-.5.72-.54 1.2h3.44Zm7.8.6c0 .48-.08.93-.22 1.34a3 3 0 0 1-.59 1.02 2.5 2.5 0 0 1-1.85.83 3.28 3.28 0 0 1-1.62-.42v2.51h-1V8h1v.63c.27-.23.57-.41.9-.57.34-.15.7-.23 1.08-.23.72 0 1.28.28 1.68.83.4.54.61 1.3.61 2.27Zm-1.05.02c0-.72-.12-1.26-.37-1.62-.25-.36-.63-.53-1.14-.53-.29 0-.58.06-.88.18-.29.13-.57.3-.84.5v3.4a3.23 3.23 0 0 0 1.44.33c.56 0 1-.19 1.32-.57.31-.38.47-.94.47-1.69Zm3.63 3.05h-1V5.64h1V14Zm7.12-3c0 .98-.25 1.75-.76 2.32-.5.56-1.17.85-2 .85-.86 0-1.53-.29-2.03-.85a3.38 3.38 0 0 1-.75-2.32c0-.97.25-1.75.75-2.31.5-.57 1.17-.86 2.02-.86.84 0 1.51.29 2.02.86.5.56.75 1.34.75 2.31Zm-1.05 0c0-.77-.15-1.35-.45-1.73-.3-.38-.73-.57-1.27-.57-.55 0-.97.2-1.28.57-.3.38-.45.96-.45 1.73 0 .75.15 1.33.46 1.72.3.38.73.58 1.27.58s.96-.2 1.26-.58c.31-.38.47-.96.47-1.72Zm7.8-3-3.5 8.21h-1.08l1.12-2.5-2.4-5.71h1.1l1.85 4.45L121.74 8h1.05Zm5.61 4.27c0 .55-.23 1-.68 1.35-.45.35-1.07.53-1.85.53a4.56 4.56 0 0 1-2.16-.51v-1.13h.06a3.86 3.86 0 0 0 2.18.78c.45 0 .8-.07 1.04-.21a.73.73 0 0 0 .38-.68c0-.24-.07-.42-.2-.54-.14-.12-.4-.22-.79-.3a15.4 15.4 0 0 0-.56-.12 8.89 8.89 0 0 1-.63-.14c-.53-.14-.9-.35-1.12-.61-.22-.28-.33-.6-.33-1 0-.25.05-.48.15-.7.1-.22.26-.41.47-.59.2-.16.45-.3.76-.4a4.54 4.54 0 0 1 3.05.3v1.1h-.06a3.56 3.56 0 0 0-2.02-.68c-.37 0-.68.07-.94.21a.68.68 0 0 0-.38.63c0 .25.08.44.23.56.15.13.4.23.73.3a15.7 15.7 0 0 0 1.2.25c.47.11.83.3 1.09.56.25.26.38.61.38 1.05Z" fill="#181A1C"/></g><defs><filter id="b" x="6" y="4.5" width="13" height="12" filterUnits="userSpaceOnUse" color-interpolation-filters="sRGB"><feFlood flood-opacity="0" result="BackgroundImageFix"/><feColorMatrix in="SourceAlpha" values="0 0 0 0 0 0 0 0 0 0 0 0 0 0 0 0 0 0 127 0" result="hardAlpha"/><feOffset dy="1"/><feComposite in2="hardAlpha" operator="out"/><feColorMatrix values="0 0 0 0 0.00392157 0 0 0 0 0.00392157 0 0 0 0 0.00392157 0 0 0 0.3 0"/><feBlend in2="BackgroundImageFix" result="effect1_dropShadow_56_4977"/><feBlend in="SourceGraphic" in2="effect1_dropShadow_56_4977" result="shape"/></filter><filter id="c" x="23.36" y="5.59" width="32.95" height="11.62" filterUnits="userSpaceOnUse" color-interpolation-filters="sRGB"><feFlood flood-opacity="0" result="BackgroundImageFix"/><feColorMatrix in="SourceAlpha" values="0 0 0 0 0 0 0 0 0 0 0 0 0 0 0 0 0 0 127 0" result="hardAlpha"/><feOffset dy="1"/><feComposite in2="hardAlpha" operator="out"/><feColorMatrix values="0 0 0 0 0.00392157 0 0 0 0 0.00392157 0 0 0 0 0.00392157 0 0 0 0.3 0"/><feBlend in2="BackgroundImageFix" result="effect1_dropShadow_56_4977"/><feBlend in="SourceGraphic" in2="effect1_dropShadow_56_4977" result="shape"/></filter><clipPath id="a"><rect width="135" height="20" rx="3" fill="#fff"/></clipPath></defs></svg>